<svg xmlns="http://www.w3.org/2000/svg" width="43.15" height="43.15" viewBox="0 0 43.15 43.15">
  <defs>
    <style>
      .cls-1 {
        fill: #409eff;
      }
    </style>
  </defs>
  <g id="组_2902" data-name="组 2902" transform="translate(-538.081 -766)">
    <path id="路径_2420" data-name="路径 2420" class="cls-1" d="M584.39,768.725c-12.883,6.226-21.164,25.135-21.164,25.135l-5.061-9.223L547.814,790.4c4.371,1.384,10.812,6.227,16.1,12.453,3.682-6.457,15.413-20.062,21.164-21.215-2.3-4.612-.92-8.532-.69-12.913Zm0,0" transform="translate(-4.83 -1.352)"/>
    <path id="路径_2421" data-name="路径 2421" class="cls-1" d="M559.656,766a21.57,21.57,0,0,1,5.97.837,1.373,1.373,0,0,1-.758,2.639,18.859,18.859,0,1,0,13.618,18.1,1.373,1.373,0,1,1,2.746,0A21.575,21.575,0,1,1,559.656,766Zm0,0"/>
  </g>
</svg>
