<svg xmlns="http://www.w3.org/2000/svg" width="17.667" height="17.667" viewBox="0 0 17.667 17.667">
  <defs>
    <style>
      .cls-1 {
        opacity: 0;
      }

      .cls-2 {
        fill: #c0c4cc;
      }
    </style>
  </defs>
  <g id="组_2901" data-name="组 2901" transform="translate(-456.167 -276.5)">
    <rect id="矩形_1761" data-name="矩形 1761" class="cls-1" width="17.667" height="17.667" transform="translate(456.167 276.5)"/>
    <path id="路径_2419" data-name="路径 2419" class="cls-2" d="M472.388,282.714a.641.641,0,0,0-.126-.955.8.8,0,0,0-1.035.1c-2.037,2.318-4.072,3.441-6.11,3.441s-4.166-1.133-6.355-3.456a.792.792,0,0,0-1.049-.071.639.639,0,0,0-.079.959,16.908,16.908,0,0,0,2.119,1.918l-1.39,1.47a.46.46,0,0,0,.054.686.571.571,0,0,0,.756-.05l1.412-1.5c.006-.007.008-.016.014-.023a9.64,9.64,0,0,0,2.113,1.023.493.493,0,0,0-.067.121v0l-.568,2.069a.485.485,0,0,0,.386.589.537.537,0,0,0,.646-.353l.567-2.073a.467.467,0,0,0,0-.1,7.351,7.351,0,0,0,1.438.143,7.241,7.241,0,0,0,1.643-.193h0l.8,2.074a.549.549,0,0,0,.684.284.474.474,0,0,0,.318-.606l-.79-2.062a9.558,9.558,0,0,0,2.172-1.189l1.35,1.236a.568.568,0,0,0,.756,0,.458.458,0,0,0,0-.687l-1.294-1.185A16.247,16.247,0,0,0,472.388,282.714Z"/>
  </g>
</svg>
