<svg xmlns="http://www.w3.org/2000/svg" width="17.667" height="17.667" viewBox="0 0 17.667 17.667">
  <defs>
    <style>
      .cls-1 {
        opacity: 0;
      }

      .cls-2 {
        fill: #c0c4cc;
      }
    </style>
  </defs>
  <g id="组_2900" data-name="组 2900" transform="translate(-428.833 -276.5)">
    <rect id="矩形_1760" data-name="矩形 1760" class="cls-1" width="17.667" height="17.667" transform="translate(428.833 276.5)"/>
    <g id="组_2899" data-name="组 2899">
      <path id="路径_2417" data-name="路径 2417" class="cls-2" d="M437.655,280.542c-3.341,0-6.574,1.991-7.655,4.788,1.081,2.8,4.314,4.8,7.655,4.8s6.6-1.991,7.678-4.8A8.337,8.337,0,0,0,437.655,280.542Zm0,7.786a3,3,0,1,1,3.193-3A3.114,3.114,0,0,1,437.655,288.328Z"/>
      <path id="路径_2418" data-name="路径 2418" class="cls-2" d="M439.715,285.33a1.915,1.915,0,1,1-1.917-1.8A1.866,1.866,0,0,1,439.715,285.33Z"/>
    </g>
  </g>
</svg>
