<svg xmlns="http://www.w3.org/2000/svg" width="11.497" height="13.25" viewBox="0 0 11.497 13.25">
  <defs>
    <style>
      .cls-1 {
        fill: #f56c6c;
      }
    </style>
  </defs>
  <g id="组_252" data-name="组 252" transform="translate(-107 -196)">
    <path id="路径_644" data-name="路径 644" class="cls-1" d="M177.247,177.465a3.345,3.345,0,0,1,.277-3.878,6.3,6.3,0,0,0,.923-2.17,2.463,2.463,0,0,1,.369,1.939,5.1,5.1,0,0,0,1.062-3.693,6.369,6.369,0,0,1,1.985,7.756c7.11-4.063,1.755-10.111.831-10.757a2.172,2.172,0,0,1-.277,2.4c-1.062-4.063-3.693-4.848-3.693-4.848.323,2.078-1.108,4.34-2.493,6.048a4.385,4.385,0,0,0-.554-2.216c-.092,1.524-1.247,2.724-1.57,4.247-.415,2.078.323,3.555,3.14,5.171Zm0,0" transform="translate(-67 31.785)"/>
  </g>
</svg>
