<svg xmlns="http://www.w3.org/2000/svg" xmlns:xlink="http://www.w3.org/1999/xlink" width="16.363" height="16.36" viewBox="0 0 16.363 16.36">
  <defs>
    <style>
      .cls-1 {
        clip-path: url(#clip-path);
      }

      .cls-2 {
        fill: #ff9c2b;
      }

      .cls-3 {
        fill: #fff;
      }
    </style>
    <clipPath id="clip-path"/>
  </defs>
  <g id="组_2833" data-name="组 2833" transform="translate(-202.59 -204.015)">
    <g id="组_2689" data-name="组 2689" transform="translate(202.593 204)">
      <g id="组_2688" data-name="组 2688" class="cls-1">
        <path id="路径_2353" data-name="路径 2353" class="cls-2" d="M218.074,204.085h-5.944a.857.857,0,0,0-.609.251l-8.694,8.694a.862.862,0,0,0,0,1.219l5.944,5.944a.864.864,0,0,0,1.219,0l8.694-8.694a.86.86,0,0,0,.254-.609v-5.944a.864.864,0,0,0-.863-.861Z" transform="translate(-202.578 -204.07)"/>
      </g>
    </g>
    <path id="路径_2354" data-name="路径 2354" class="cls-3" d="M258.331,221a2.217,2.217,0,1,0-.65-1.568,2.2,2.2,0,0,0,.65,1.568Z" transform="translate(-45.46 -10.905)"/>
  </g>
</svg>
