<svg xmlns="http://www.w3.org/2000/svg" width="23" height="23" viewBox="0 0 23 23">
  <defs>
    <style>
      .cls-1 {
        fill: #606060;
        opacity: 0;
      }

      .cls-2 {
        fill: #303133;
      }
    </style>
  </defs>
  <g id="组_3382" data-name="组 3382" transform="translate(-242.913 -267.051)">
    <rect id="矩形_2093" data-name="矩形 2093" class="cls-1" width="23" height="23" transform="translate(242.913 267.051)"/>
    <g id="组_3381" data-name="组 3381" transform="translate(245.673 269.536)">
      <path id="路径_2627" data-name="路径 2627" class="cls-2" d="M262.568,282.452h-.831v-.35a.729.729,0,0,0-.729-.729h0a.729.729,0,0,0-.729.729v.642a1.167,1.167,0,0,0,1.167,1.167h1.123a.489.489,0,0,1,0,.977H248.641a.489.489,0,1,1,0-.977h1.123a1.167,1.167,0,0,0,1.167-1.167v-3.426a4.788,4.788,0,0,1,4.053-4.8,4.682,4.682,0,0,1,5.3,4.633v.685a.729.729,0,0,0,.729.729h0a.729.729,0,0,0,.729-.729v-.472a6.274,6.274,0,0,0-5.717-6.332,6.136,6.136,0,0,0-6.548,6.118v3.3h-.722A2.01,2.01,0,0,0,246.7,284.3a1.942,1.942,0,0,0,1.94,2.049h13.817a2.015,2.015,0,0,0,2.049-1.845A1.938,1.938,0,0,0,262.568,282.452Z" transform="translate(-246.698 -271.152)"/>
      <path id="矩形_2094" data-name="矩形 2094" class="cls-2" d="M1.276,0h0A1.276,1.276,0,0,1,2.552,1.276V2.689a0,0,0,0,1,0,0H0a0,0,0,0,1,0,0V1.276A1.276,1.276,0,0,1,1.276,0Z" transform="translate(7.63)"/>
      <path id="路径_2628" data-name="路径 2628" class="cls-2" d="M259.8,292.4a3.259,3.259,0,0,1-4.506,0h-.984a.446.446,0,0,0-.33.743,4.737,4.737,0,0,0,7.133,0,.446.446,0,0,0-.33-.743Z" transform="translate(-248.64 -276.402)"/>
    </g>
  </g>
</svg>
