<svg xmlns="http://www.w3.org/2000/svg" width="26" height="26" viewBox="0 0 26 26">
  <defs>
    <style>
      .cls-1 {
        opacity: 0;
      }

      .cls-2 {
        fill: #bbb;
      }
    </style>
  </defs>
  <g id="组_2881" data-name="组 2881" transform="translate(-416.875 -151.624)">
    <rect id="矩形_1747" data-name="矩形 1747" class="cls-1" width="26" height="26" transform="translate(416.875 151.624)"/>
    <path id="路径_2402" data-name="路径 2402" class="cls-2" d="M440.242,155.792a.93.93,0,0,1,.877.973v18.913l-6.808-4.148a3.034,3.034,0,0,0-3.166,0l-6.808,4.148V156.765a.93.93,0,0,1,.877-.973h15.028m0-1.615H425.214a2.539,2.539,0,0,0-2.486,2.588v20.913a.489.489,0,0,0,.48.5.46.46,0,0,0,.241-.069l8.531-5.2a1.433,1.433,0,0,1,1.5,0l8.531,5.2a.461.461,0,0,0,.241.069.489.489,0,0,0,.479-.5V156.765a2.539,2.539,0,0,0-2.486-2.588Z" transform="translate(-2.853 -1.183)"/>
    <path id="路径_2403" data-name="路径 2403" class="cls-2" d="M441.433,164.622l-4.324-2.432a.838.838,0,0,0-1.257.707v4.864a.839.839,0,0,0,1.257.708l4.324-2.432A.806.806,0,0,0,441.433,164.622Z" transform="translate(-8.977 -4.956)"/>
    <rect id="矩形_1748" data-name="矩形 1748" class="cls-2" width="7.5" height="1.5" rx="0.75" transform="translate(426.375 165.124)"/>
  </g>
</svg>
