<svg xmlns="http://www.w3.org/2000/svg" width="26" height="26" viewBox="0 0 26 26">
  <defs>
    <style>
      .cls-1 {
        opacity: 0;
      }

      .cls-2 {
        fill: #0082ef;
      }

      .cls-3 {
        fill: #fff;
      }
    </style>
  </defs>
  <g id="组_2871" data-name="组 2871" transform="translate(-416.875 -85.29)">
    <rect id="矩形_1736" data-name="矩形 1736" class="cls-1" width="26" height="26" transform="translate(416.875 85.29)"/>
    <path id="路径_2397" data-name="路径 2397" class="cls-2" d="M442.007,111.775l-8.531-5.2a1.433,1.433,0,0,0-1.5,0l-8.531,5.2a.479.479,0,0,1-.721-.43V90.432a2.539,2.539,0,0,1,2.486-2.588h15.028a2.539,2.539,0,0,1,2.486,2.588v20.913A.479.479,0,0,1,442.007,111.775Z" transform="translate(-2.853 -1.185)"/>
    <path id="路径_2398" data-name="路径 2398" class="cls-3" d="M441.433,98.288l-4.324-2.432a.839.839,0,0,0-1.257.708v4.864a.838.838,0,0,0,1.257.707l4.324-2.432A.807.807,0,0,0,441.433,98.288Z" transform="translate(-8.977 -4.955)"/>
    <rect id="矩形_1737" data-name="矩形 1737" class="cls-3" width="7.5" height="1.5" rx="0.75" transform="translate(426.375 98.791)"/>
  </g>
</svg>
