<svg xmlns="http://www.w3.org/2000/svg" width="26" height="26" viewBox="0 0 26 26">
  <defs>
    <style>
      .cls-1 {
        opacity: 0;
      }

      .cls-2 {
        fill: #bbb;
      }
    </style>
  </defs>
  <g id="组_2883" data-name="组 2883" transform="translate(-483.875 -151.624)">
    <rect id="矩形_1749" data-name="矩形 1749" class="cls-1" width="26" height="26" transform="translate(483.875 151.624)"/>
    <path id="路径_2404" data-name="路径 2404" class="cls-2" d="M506.954,156.035a1.906,1.906,0,0,1,1.9,1.907v3.733H489.337v-3.733a1.906,1.906,0,0,1,1.9-1.907h15.716m0-1.6H491.238a3.5,3.5,0,0,0-3.492,3.5v5.33h22.7v-5.33a3.5,3.5,0,0,0-3.491-3.5Z" transform="translate(-1.81 -1.316)"/>
    <path id="路径_2405" data-name="路径 2405" class="cls-2" d="M508.735,175.262v8.65a1.6,1.6,0,0,1-1.591,1.6H492.783a1.6,1.6,0,0,1-1.591-1.6v-8.65h17.543m1.591-1.6H489.6v10.247a3.187,3.187,0,0,0,3.181,3.194h14.362a3.188,3.188,0,0,0,3.181-3.194V173.665Z" transform="translate(-2.678 -10.392)"/>
    <path id="路径_2406" data-name="路径 2406" class="cls-2" d="M506.01,186.749l4.476-4.476a.832.832,0,0,0-1.176-1.176l-3.9,3.9-1.857-1.857a.832.832,0,0,0-1.176,1.176l2.447,2.447a.831.831,0,0,0,1.176,0Z" transform="translate(-8.586 -13.736)"/>
  </g>
</svg>
