<svg xmlns="http://www.w3.org/2000/svg" width="26" height="26" viewBox="0 0 26 26">
  <defs>
    <style>
      .cls-1 {
        opacity: 0;
      }

      .cls-2 {
        fill: #bbb;
      }
    </style>
  </defs>
  <g id="组_2887" data-name="组 2887" transform="translate(-619.167 -151.624)">
    <rect id="矩形_1753" data-name="矩形 1753" class="cls-1" width="26" height="26" transform="translate(619.167 151.624)"/>
    <path id="路径_2409" data-name="路径 2409" class="cls-2" d="M638.706,182.731a5.011,5.011,0,0,1,5.015,5v.9a.391.391,0,0,1-.392.391H623.337a.392.392,0,0,1-.392-.391v-.9a5.005,5.005,0,0,1,5.015-5h10.746m0-1.606H627.96a6.614,6.614,0,0,0-6.627,6.6v1.383a1.52,1.52,0,0,0,1.523,1.516h20.955a1.52,1.52,0,0,0,1.522-1.516v-1.383a6.614,6.614,0,0,0-6.627-6.6Z" transform="translate(-1.166 -14.001)"/>
    <path id="路径_2410" data-name="路径 2410" class="cls-2" d="M638.764,155.811a4.263,4.263,0,0,1,4.067,4.427c0,2.479-1.877,5.508-4.067,5.508s-4.067-3.028-4.067-5.508a4.263,4.263,0,0,1,4.067-4.427m0-1.61a5.865,5.865,0,0,0-5.676,6.037c0,3.334,2.541,7.118,5.676,7.118s5.676-3.784,5.676-7.118a5.865,5.865,0,0,0-5.676-6.037Z" transform="translate(-6.597 -1.194)"/>
  </g>
</svg>
