<svg xmlns="http://www.w3.org/2000/svg" width="16" height="15.111" viewBox="0 0 16 15.111">
  <defs>
    <style>
      .cls-1 {
        fill: #999;
      }
    </style>
  </defs>
  <g id="组_2332" data-name="组 2332" transform="translate(-139.984 -158.5)">
    <path id="路径_856" data-name="路径 856" class="cls-1" d="M148.808,173.611a.519.519,0,0,1-.525-.511v-8.738a.5.5,0,0,1,.127-.333l3.984-4.508h-10.8l3.658,4.525a.5.5,0,0,1,.112.316v5.217l1.581,1.539a.5.5,0,0,1-.006.722.535.535,0,0,1-.737,0l-1.734-1.688a.5.5,0,0,1-.154-.361v-5.251l-4.214-5.213a.5.5,0,0,1,.088-.717.537.537,0,0,1,.325-.109h13.028a.529.529,0,0,1,.371.15.5.5,0,0,1,.027.694l-4.6,5.208V173.1A.518.518,0,0,1,148.808,173.611Z" transform="translate(0 0)"/>
    <path id="路径_857" data-name="路径 857" class="cls-1" d="M637.459,466.263a.537.537,0,0,1,0-1.073h4.152a.537.537,0,0,1,0,1.073h-4.152Zm0-3.359a.537.537,0,0,1,0-1.073h4.152a.537.537,0,0,1,0,1.073h-4.152Zm0-3.32a.537.537,0,0,1,0-1.073h4.151a.537.537,0,0,1,0,1.073h-4.153Z" transform="translate(-486.164 -294.082)"/>
  </g>
</svg>
