<svg xmlns="http://www.w3.org/2000/svg" width="22" height="22" viewBox="0 0 22 22">
  <defs>
    <style>
      .cls-1 {
        fill: #fff;
      }

      .cls-2 {
        fill: #6ac1ff;
      }
    </style>
  </defs>
  <g id="组_3364" data-name="组 3364" transform="translate(-236 -599)">
    <rect id="矩形_2076" data-name="矩形 2076" class="cls-1" width="22" height="22" transform="translate(236 599)"/>
    <g id="组_3362" data-name="组 3362" transform="translate(-124.345 38.013)">
      <g id="组_3360" data-name="组 3360" transform="translate(363.679 564.323)">
        <path id="路径_2623" data-name="路径 2623" class="cls-2" d="M375.23,563.323h-10.5a1.028,1.028,0,0,0-1.05,1.006V578.4a1.028,1.028,0,0,0,1.05,1h11.549V566.338h0v-2.01A1.028,1.028,0,0,0,375.23,563.323Z" transform="translate(-363.679 -563.323)"/>
        <path id="路径_2624" data-name="路径 2624" class="cls-2" d="M385.148,568.592h-1.04v12.3h1.048a1.014,1.014,0,0,0,1.049-.971V569.563a1.014,1.014,0,0,0-1.049-.971Z" transform="translate(-370.104 -564.809)"/>
      </g>
      <g id="组_3363" data-name="组 3363" transform="translate(366.359 568.303)">
        <path id="路径_2625" data-name="路径 2625" class="cls-1" d="M371.92,571.123a3.916,3.916,0,0,0-3.2,1.677l-.655-.428.114,1.982,1.86-.694-.678-.442a3.119,3.119,0,0,1,2.56-1.332,3.159,3.159,0,1,1-2.871,4.458h-.824a3.92,3.92,0,1,0,3.7-5.221Z" transform="translate(-368.064 -571.123)"/>
        <path id="路径_2626" data-name="路径 2626" class="cls-1" d="M372.754,573.976h-.064a.324.324,0,0,0-.324.324v1.709a.333.333,0,0,0,.328.328h2.249a.324.324,0,0,0,.323-.324v-.064a.324.324,0,0,0-.323-.324h-1.864V574.3A.324.324,0,0,0,372.754,573.976Z" transform="translate(-369.115 -571.82)"/>
      </g>
    </g>
  </g>
</svg>
