<svg xmlns="http://www.w3.org/2000/svg" width="22" height="22" viewBox="0 0 22 22">
  <defs>
    <style>
      .cls-1 {
        fill: #fff;
      }

      .cls-2 {
        fill: #6ac1ff;
      }
    </style>
  </defs>
  <g id="组_3358" data-name="组 3358" transform="translate(-146 -599)">
    <rect id="矩形_2074" data-name="矩形 2074" class="cls-1" width="22" height="22" transform="translate(146 599)"/>
    <g id="组_3205" data-name="组 3205" transform="translate(-266.993 163.5)">
      <path id="路径_2616" data-name="路径 2616" class="cls-2" d="M419.438,453.723h-2.459a.615.615,0,0,1-.614-.614v-9.815a.614.614,0,0,1,.614-.613h2.459a.613.613,0,0,1,.615.613v9.815a.614.614,0,0,1-.615.614m6.147,0h-2.459a.614.614,0,0,1-.614-.614v-13.5a.613.613,0,0,1,.614-.613h2.459a.614.614,0,0,1,.614.613v13.5a.615.615,0,0,1-.614.614m6.146,0h-2.458a.613.613,0,0,1-.615-.614v-6.135a.615.615,0,0,1,.615-.614h2.458a.615.615,0,0,1,.615.614v6.134a.615.615,0,0,1-.615.614" transform="translate(0 0)"/>
    </g>
  </g>
</svg>
