<svg xmlns="http://www.w3.org/2000/svg" width="22" height="22" viewBox="0 0 22 22">
  <defs>
    <style>
      .cls-1 {
        fill: #fff;
      }

      .cls-2 {
        fill: #6ac1ff;
      }
    </style>
  </defs>
  <g id="组_3357" data-name="组 3357" transform="translate(-102 -599)">
    <rect id="矩形_2073" data-name="矩形 2073" class="cls-1" width="22" height="22" transform="translate(102 599)"/>
    <g id="组_3355" data-name="组 3355" transform="translate(-351.731 166.789)">
      <g id="组_3354" data-name="组 3354" transform="translate(457.029 435.544)">
        <path id="路径_2618" data-name="路径 2618" class="cls-2" d="M468.066,449.16a2.043,2.043,0,0,1,1.5.755h.44a2.921,2.921,0,0,0,2.839-2.973v-4.829a2.916,2.916,0,0,0-2.839-2.968h-4.618a2.916,2.916,0,0,0-2.839,2.968v4.829a2.921,2.921,0,0,0,2.839,2.973h1.158A1.912,1.912,0,0,1,468.066,449.16Z" transform="translate(-459.695 -437.283)"/>
        <path id="路径_2619" data-name="路径 2619" class="cls-2" d="M471.972,441.5v-.75A5.093,5.093,0,0,0,467,435.544h-3.914a5.1,5.1,0,0,0-4.979,5.207v.729a1.093,1.093,0,0,0-1.076,1.112v2.591a1.077,1.077,0,0,0,1.06,1.112,1.089,1.089,0,0,0,1.055-1.112v-4.431a4.022,4.022,0,0,1,3.919-4.1h3.914a4.018,4.018,0,0,1,3.919,4.1v4.08a4.015,4.015,0,0,1-3.64,4.075H466.5a1.253,1.253,0,1,0-1.122,1.841A1.208,1.208,0,0,0,466.5,450l.858.041a5.05,5.05,0,0,0,4.416-3.723.573.573,0,0,0,.2.021,1.093,1.093,0,0,0,1.06-1.112v-2.611A1.08,1.08,0,0,0,471.972,441.5Z" transform="translate(-457.029 -435.544)"/>
      </g>
      <path id="路径_2620" data-name="路径 2620" class="cls-1" d="M472.414,452.114v.041c0,1.132-1.6,2.053-3.557,2.053s-3.557-.92-3.557-2.053v-.041Z" transform="translate(-3.994 -8.002)"/>
    </g>
  </g>
</svg>
