<svg xmlns="http://www.w3.org/2000/svg" width="22" height="22" viewBox="0 0 22 22">
  <defs>
    <style>
      .cls-1 {
        fill: #fff;
      }

      .cls-2 {
        fill: #6ac1ff;
      }
    </style>
  </defs>
  <g id="组_3359" data-name="组 3359" transform="translate(-185 -599)">
    <rect id="矩形_2075" data-name="矩形 2075" class="cls-1" width="22" height="22" transform="translate(185 599)"/>
    <g id="组_3356" data-name="组 3356" transform="translate(-331.32 165.165)">
      <path id="路径_2621" data-name="路径 2621" class="cls-2" d="M535.488,439.856V443.3l-1.113-.754-6.807,7.987v2.555h-5.31a2.738,2.738,0,0,1-2.737-2.737v-13.23h13.23A2.738,2.738,0,0,1,535.488,439.856Z" transform="translate(0 0)"/>
      <path id="路径_2622" data-name="路径 2622" class="cls-2" d="M540.839,451.87,536,457.747l-1.6.439.125-1.649,4.836-5.877Z" transform="translate(-5.832 -5.304)"/>
      <path id="矩形_2077" data-name="矩形 2077" class="cls-2" d="M0,0H.79a.563.563,0,0,1,.563.563v.779A.563.563,0,0,1,.79,1.9H0a0,0,0,0,1,0,0V0A0,0,0,0,1,0,0Z" transform="matrix(0.635, -0.772, 0.772, 0.635, 533.938, 444.87)"/>
      <rect id="矩形_2078" data-name="矩形 2078" class="cls-1" width="9.657" height="1.445" rx="0.722" transform="translate(521.486 440.682)"/>
      <rect id="矩形_2079" data-name="矩形 2079" class="cls-1" width="5.969" height="1.445" rx="0.722" transform="translate(521.486 443.837)"/>
    </g>
  </g>
</svg>
